<svg width="33" height="33" viewBox="0 0 33 33" fill="none" xmlns="http://www.w3.org/2000/svg">
<rect width="32.25" height="32.25" rx="3.79412" fill="#E8BF96"/>
<path d="M11.1872 24.6621H7.83984V13.876H11.1872V24.6621ZM9.49554 12.4331C8.45173 12.4331 7.58789 11.5312 7.58789 10.449C7.58789 9.40288 8.45173 8.53711 9.49554 8.53711C10.5753 8.53711 11.4392 9.40288 11.4392 10.449C11.4392 11.5312 10.5753 12.4331 9.49554 12.4331ZM20.3655 24.6621V19.4314C20.3655 18.1688 20.3295 16.5816 18.6018 16.5816C16.8742 16.5816 16.6222 17.9163 16.6222 19.3232V24.6621H13.2748V13.876H16.4782V15.3551H16.5142C16.9821 14.5254 18.0619 13.6235 19.6816 13.6235C23.065 13.6235 23.7129 15.8601 23.7129 18.746V24.6621H20.3655Z" fill="#272422"/>
</svg>
