<svg width="19" height="19" viewBox="0 0 19 19" fill="none" xmlns="http://www.w3.org/2000/svg">
<g clip-path="url(#clip0_8003_221)">
<path d="M14.5244 18.9706H4.44623C1.99458 18.9706 0 16.976 0 14.5244V4.44623C0 1.99458 1.99458 0 4.44623 0H14.5244C16.976 0 18.9706 1.99458 18.9706 4.44623V14.5244C18.9706 16.976 16.976 18.9706 14.5244 18.9706ZM4.44623 1.48208C2.8118 1.48208 1.48208 2.8118 1.48208 4.44623V14.5244C1.48208 16.1588 2.8118 17.4885 4.44623 17.4885H14.5244C16.1588 17.4885 17.4885 16.1588 17.4885 14.5244V4.44623C17.4885 2.8118 16.1588 1.48208 14.5244 1.48208H4.44623ZM14.7096 3.33467C14.198 3.33467 13.7833 3.7494 13.7833 4.26097C13.7833 4.77255 14.198 5.18727 14.7096 5.18727C15.2212 5.18727 15.6359 4.77255 15.6359 4.26097C15.6359 3.7494 15.2212 3.33467 14.7096 3.33467ZM9.48529 14.302C6.8293 14.302 4.66854 12.1413 4.66854 9.48529C4.93309 3.09521 14.0385 3.09706 14.302 9.48533C14.302 12.1413 12.1413 14.302 9.48529 14.302ZM9.48529 6.15062C7.64656 6.15062 6.15062 7.64656 6.15062 9.48529C6.33381 13.9092 12.6375 13.9079 12.82 9.48526C12.82 7.64655 11.324 6.15062 9.48529 6.15062Z" fill="#272422"/>
</g>
<defs>
<clipPath id="clip0_8003_221">
<rect width="18.9706" height="18.9706" fill="white"/>
</clipPath>
</defs>
</svg>
