<svg width="31" height="31" viewBox="0 0 31 31" fill="none" xmlns="http://www.w3.org/2000/svg">
<path d="M15.375 0L15.8249 13.1131L21.2588 1.17035L16.6563 13.4574L26.2468 4.50323L17.2926 14.0937L29.5796 9.49124L17.6369 14.9251L30.75 15.375L17.6369 15.8249L29.5796 21.2588L17.2926 16.6563L26.2468 26.2468L16.6563 17.2926L21.2588 29.5796L15.8249 17.6369L15.375 30.75L14.9251 17.6369L9.49124 29.5796L14.0937 17.2926L4.50323 26.2468L13.4574 16.6563L1.17035 21.2588L13.1131 15.8249L0 15.375L13.1131 14.9251L1.17035 9.49124L13.4574 14.0937L4.50323 4.50323L14.0937 13.4574L9.49124 1.17035L14.9251 13.1131L15.375 0Z" fill="black"/>
</svg>
